Coordinates
nRows=6
nColumns=38

# SIMM Motion File Header:
name Coordinates
datacolumns 38
datarows 6
otherdata 1
range 1.87540000000000000000 1.88040000000000010000

Units are S.I. units (second, meters, Newtons, ...)
Angles are in degrees.

endheader
time	pelvis_tilt	pelvis_list	pelvis_rotation	pelvis_tx	pelvis_ty	pelvis_tz	hip_flexion_r	hip_adduction_r	hip_rotation_r	knee_angle_r	ankle_angle_r	subtalar_angle_r	mtp_angle_r	hip_flexion_l	hip_adduction_l	hip_rotation_l	knee_angle_l	ankle_angle_l	subtalar_angle_l	mtp_angle_l	lumbar_extension	lumbar_bending	lumbar_rotation	arm_flex_r	arm_add_r	arm_rot_r	elbow_flex_r	pro_sup_r	wrist_flex_r	wrist_dev_r	arm_flex_l	arm_add_l	arm_rot_l	elbow_flex_l	pro_sup_l	wrist_flex_l	wrist_dev_l
      1.87540000000000000000	     -2.74447257394802160000	     -5.58373141867940870000	     -2.28223433404681540000	      1.05283327518117060000	      0.96105655068963491000	     -0.30601848098349588000	     10.62541065833396400000	     13.10296870547000100000	      6.93260224317277270000	    -40.47861589146896900000	     23.04907624855606900000	     -0.00000000000002828122	      0.00000000000002898519	     35.47652421390665000000	     -5.21939877204136500000	      0.78576241499069133000	    -87.90053120509185200000	     -2.71832224295029910000	     -0.00000000000000651661	     -0.00000000000000545410	     -9.21877423931305450000	      8.93575333238518430000	     10.03150607522739300000	    -21.99346567272132800000	    -11.91068468393578100000	    -10.84473938344118500000	     72.84066588349543300000	     67.64072752925595500000	      0.00000000000000072812	      0.00000000000001516633	    -34.68025107997056700000	    -15.46643316101212700000	      1.28696395197702950000	     90.48298301060432900000	     91.56537574923955000000	      0.00000000000000116432	     -0.00000000000000145248
      1.87640000000000010000	     -2.79062671644780290000	     -5.53888674967045970000	     -2.26815361172894560000	      1.05278514285298840000	      0.96158001476993449000	     -0.30597381393389050000	     10.43148072286702700000	     13.05336366823033800000	      7.00338835103835410000	    -40.25808920431378400000	     22.90026647916040800000	     -0.00000000000002844944	      0.00000000000002932086	     35.62127246112812200000	     -5.17813506021559620000	      0.77933441849658558000	    -87.63883604053845000000	     -2.68846491332815600000	     -0.00000000000000661778	     -0.00000000000000557711	     -9.16197292481549570000	      8.87447832026025910000	     10.10802737027192900000	    -21.98294807503651400000	    -11.89913096121145300000	    -10.88525443466326000000	     73.14279044889302400000	     67.66036063698769000000	      0.00000000000000077818	      0.00000000000001532446	    -34.79350173332886000000	    -15.48554446645800900000	      1.21624680153932570000	     90.55731796578940900000	     91.53260120594499900000	      0.00000000000000117767	     -0.00000000000000146240
      1.87740000000000000000	     -2.83606824091642330000	     -5.49265803069356370000	     -2.25405964769120940000	      1.05274126431660430000	      0.96211331450448356000	     -0.30593109458175999000	     10.23691398497998500000	     13.00190361935142700000	      7.07432751559709770000	    -40.03726466559994200000	     22.74544986216086800000	     -0.00000000000002860590	      0.00000000000002964609	     35.76203394038240200000	     -5.13470711593684290000	      0.77206806781264348000	    -87.37161874693514100000	     -2.65911966954845940000	     -0.00000000000000672029	     -0.00000000000000571704	     -9.10538392618274980000	      8.81175627105993800000	     10.18387599483254200000	    -21.97341295209263000000	    -11.88846028869713800000	    -10.92420149915527900000	     73.44430877606863800000	     67.68328803668985900000	      0.00000000000000083104	      0.00000000000001546815	    -34.90745615109479200000	    -15.50539844013102600000	      1.14549846427169210000	     90.63504868178159800000	     91.49942404433389200000	      0.00000000000000119127	     -0.00000000000000147163
      1.87840000000000010000	     -2.88074378977378840000	     -5.44502192610878840000	     -2.23997203798702540000	      1.05270156201009700000	      0.96265638538549914000	     -0.30589036711545131000	     10.04172515227160100000	     12.94852814333156800000	      7.14531761785742960000	    -39.81623434231774900000	     22.58462226345057300000	     -0.00000000000002874192	      0.00000000000002998632	     35.89874322128872600000	     -5.08910197340647310000	      0.76394948582993150000	    -87.09888962026916200000	     -2.63030226489761660000	     -0.00000000000000682715	     -0.00000000000000587795	     -9.04909297646798020000	      8.74756890515105030000	     10.25906537615503400000	    -21.96481812084745000000	    -11.87866774894086100000	    -10.96161994855966200000	     73.74515435607455100000	     67.70972806349459500000	      0.00000000000000089120	      0.00000000000001561169	    -35.02203230970268100000	    -15.52597005266682500000	      1.07478968859831570000	     90.71598366523667800000	     91.46609393036514700000	      0.00000000000000120491	     -0.00000000000000147972
      1.87940000000000000000	     -2.92460190594828170000	     -5.39595718384406720000	     -2.22590945601491750000	      1.05266595440806320000	      0.96320915827835718000	     -0.30585167203247010000	      9.84593049927979540000	     12.89317976886977100000	      7.21625531833674390000	    -39.59508792684314200000	     22.41778887353596900000	     -0.00000000000002886678	      0.00000000000003033621	     36.03133895365459700000	     -5.04131053566357230000	      0.75496557687430754000	    -86.82065922783122900000	     -2.60203198897800900000	     -0.00000000000000693098	     -0.00000000000000603301	     -8.99318461113060510000	      8.68189980896171140000	     10.33360922869779800000	    -21.95712311958993000000	    -11.86974605702937800000	    -10.99755194109657600000	     74.04526452767915100000	     67.73988564683168100000	      0.00000000000000094406	      0.00000000000001575239	    -35.13714834672029500000	    -15.54723460396652100000	      1.00419013308013170000	     90.79993407766292500000	     91.43285034200288000000	      0.00000000000000121716	     -0.00000000000000148914
      1.88040000000000010000	     -2.96759329459757070000	     -5.34544482772253820000	     -2.21188954858599460000	      1.05263435627752470000	      0.96377155882504884000	     -0.30581504583265307000	      9.64954807694534370000	     12.83580429201614100000	      7.28703623786186940000	    -39.37391269502497700000	     22.24496258550159300000	     -0.00000000000002901305	      0.00000000000003069932	     36.15976414297918500000	     -4.99132772325646990000	      0.74510414501170397000	    -86.53693852356076400000	     -2.57433206942197000000	     -0.00000000000000703283	     -0.00000000000000617293	     -8.93774175786401770000	      8.61473458659235370000	     10.40752132710528400000	    -21.95028919914322100000	    -11.86168567671288800000	    -11.03204195651706800000	     74.34458035938384100000	     67.77395135748579900000	      0.00000000000000099819	      0.00000000000001589224	    -35.25272285890552800000	    -15.56916776113674800000	      0.93376803931855779000	     90.88671416514610300000	     91.39992132194539900000	      0.00000000000000122851	     -0.00000000000000149992
